HIERARCHY
ROOT Hips
{
  OFFSET -35.4901 99.2528 17.4586
  CHANNELS 6 Xposition Yposition Zposition Zrotation Xrotation Yrotation
  JOINT LeftUpLeg
  {
    OFFSET 8.64259 1.95398 -2.38835
    CHANNELS 3 Zrotation Xrotation Yrotation
    JOINT LeftLeg
    {
      OFFSET 43.7702 0 0
      CHANNELS 3 Zrotation Xrotation Yrotation
      JOINT LeftFoot
      {
        OFFSET 40.6238 0 0
        CHANNELS 3 Zrotation Xrotation Yrotation
        JOINT LeftToeBase
        {
          OFFSET 12.7242 0 0
          CHANNELS 3 Zrotation Xrotation Yrotation
          End Site
          {
            OFFSET 0 0 0
          }
        }
      }
    }
  }
  JOINT RightUpLeg
  {
    OFFSET -8.2249 1.95398 -2.59336
    CHANNELS 3 Zrotation Xrotation Yrotation
    JOINT RightLeg
    {
      OFFSET 43.5653 0 0
      CHANNELS 3 Zrotation Xrotation Yrotation
      JOINT RightFoot
      {
        OFFSET 40.6238 0 0
        CHANNELS 3 Zrotation Xrotation Yrotation
        JOINT RightToeBase
        {
          OFFSET 12.7242 0 0
          CHANNELS 3 Zrotation Xrotation Yrotation
          End Site
          {
            OFFSET 0 0 0
          }
        }
      }
    }
  }
  JOINT Spine
  {
    OFFSET 0.165834 0.87714 6.61349
    CHANNELS 3 Zrotation Xrotation Yrotation
    JOINT Spine1
    {
      OFFSET 7.38963 1.71661e-005 0
      CHANNELS 3 Zrotation Xrotation Yrotation
      JOINT Spine2
      {
        OFFSET 11.9445 1.14441e-005 0
        CHANNELS 3 Zrotation Xrotation Yrotation
        JOINT Spine3
        {
          OFFSET 14.7254 4.19617e-005 0
          CHANNELS 3 Zrotation Xrotation Yrotation
          JOINT Spine4
          {
            OFFSET 10.9679 0 0
            CHANNELS 3 Zrotation Xrotation Yrotation
            JOINT RightShoulder
            {
              OFFSET 2.46616 -1.6653 3.69651
              CHANNELS 3 Zrotation Xrotation Yrotation
              JOINT RightArm
              {
                OFFSET 13.0012 0 0
                CHANNELS 3 Zrotation Xrotation Yrotation
                JOINT RightForeArm
                {
                  OFFSET 28.7848 1.52588e-005 0
                  CHANNELS 3 Zrotation Xrotation Yrotation
                  JOINT RightHand
                  {
                    OFFSET 26.5688 1.52588e-005 0
                    CHANNELS 3 Zrotation Xrotation Yrotation
                    End Site
                    {
                      OFFSET 0 0 0
                    }
                  }
                }
              }
            }
            JOINT LeftShoulder
            {
              OFFSET 2.38034 -1.29275 -3.7523
              CHANNELS 3 Zrotation Xrotation Yrotation
              JOINT LeftArm
              {
                OFFSET 16.3182 6.10351e-005 0
                CHANNELS 3 Zrotation Xrotation Yrotation
                JOINT LeftForeArm
                {
                  OFFSET 27.0901 0 0
                  CHANNELS 3 Zrotation Xrotation Yrotation
                  JOINT LeftHand
                  {
                    OFFSET 24.5451 1.52588e-005 0
                    CHANNELS 3 Zrotation Xrotation Yrotation
                    End Site
                    {
                      OFFSET 0 0 0
                    }
                  }
                }
              }
            }
            JOINT Neck
            {
              OFFSET 5.0226 -0.0266342 0
              CHANNELS 3 Zrotation Xrotation Yrotation
              JOINT Head
              {
                OFFSET 6.69364 2.86102e-005 0
                CHANNELS 3 Zrotation Xrotation Yrotation
                End Site
                {
                  OFFSET 0 0 0
                }
              }
            }
          }
        }
      }
    }
  }
}
MOTION
Frames:	13
Frame Time:	0.0416667
30.5139 42.8036 8.65864 -68.7861 -83.6533 -68.0894 6.98772 78.2117 -56.4191 -136.073 2.63923 9.50488 93.6748 13.8958 -2.7819 29.0027 -2.1297 3.60561 -69.0991 83.4095 -54.0516 -133.772 -25.4516 -0.708821 100.902 -20.447 -0.661828 20.0975 0.262806 0.49733 0.860435 13.2741 -90.2984 0.327603 1.60523 -0.508969 -11.3425 1.58128 -0.579143 -33.8856 1.68396 -0.00286268 -13.8729 1.68397 -0.00285761 86.4903 -22.0287 -117.954 9.14806 -9.87007 -53.2074 5.36479 -47.1104 -9.75863 -42.0201 -7.74615 13.9968 -91.4216 -34.9863 72.3915 -9.28535 12.4055 -75.3848 3.28086 50.1596 -7.54848 9.95363 2.02362 15.0233 45.0427 -1.17349 0.539439 -2.70469 -1.37466 -0.672581 
30.2964 42.8879 8.51669 -66.235 -82.6843 -64.6453 13.782 77.4001 -62.3419 -136.15 3.1509 9.39574 93.2896 13.7267 -3.01916 28.8145 -2.90981 4.92404 -53.7638 84.4296 -68.1967 -133.541 -24.6296 -0.917604 100.948 -20.3582 -0.612763 19.9284 0.357809 0.311221 0.999528 13.2069 -90.3529 0.462919 1.86216 -0.606935 -11.2069 1.83364 -0.688338 -33.7527 1.95845 -0.0190234 -13.7401 1.95845 -0.019009 86.5279 -21.7585 -118.039 8.82016 -9.90823 -53.2045 5.69944 -46.7796 -9.68817 -41.4861 -7.80775 14.5223 -91.3833 -34.9552 72.449 -9.56225 12.3335 -75.4717 3.8422 50.92 -7.91747 9.27538 1.81674 14.1502 44.7585 -0.842628 1.41562 -2.01236 -1.5285 -1.81566 
30.3642 42.8856 8.51291 -65.693 -82.64 -64.0493 13.7619 77.2981 -62.3468 -136.024 2.99107 9.39435 93.5931 13.8537 -3.04725 28.8423 -2.55977 4.29892 -53.2552 84.3369 -68.74 -133.502 -24.7757 -0.922526 100.739 -20.2089 -0.576959 20.1108 0.307724 0.398071 1.00441 13.218 -90.3611 0.440787 1.86888 -0.622084 -11.229 1.83969 -0.703765 -33.7749 1.96941 -0.031438 -13.7623 1.96942 -0.0314304 86.6646 -21.7019 -117.776 9.51991 -9.55974 -53.2874 4.9684 -46.7054 -9.96517 -40.974 -7.5095 13.9416 -91.3944 -34.9248 72.4191 -9.75343 12.0945 -75.5686 4.23177 51.6209 -8.18197 10.5162 1.93706 13.3402 45.1034 -0.947203 1.03452 -2.47388 -1.42707 -1.12024 
30.3748 42.8787 8.51478 -66.2953 -82.6067 -64.7114 13.1949 77.2838 -61.6961 -136.102 2.97095 9.39664 92.7729 13.6864 -2.27731 27.1406 -0.0645928 0.261108 -54.3522 84.2842 -67.5825 -133.514 -24.8312 -0.904872 100.806 -20.2811 -0.642208 19.834 0.357503 0.323294 0.989667 13.2316 -90.3593 0.413586 1.84017 -0.619093 -11.2562 1.81113 -0.699514 -33.8018 1.94112 -0.0372354 -13.7892 1.94112 -0.0372303 86.6588 -21.6666 -117.81 8.70986 -9.90872 -53.5265 5.46578 -46.908 -9.90415 -41.84 -7.87981 14.5191 -91.3964 -35.2115 72.5108 -9.4186 12.0637 -75.6869 3.95535 51.2411 -7.98308 9.66941 1.80002 13.4089 45.2939 -0.806639 1.07788 -2.82865 -1.3162 -1.10142 
30.3449 42.7587 8.53987 -66.0183 -82.6702 -64.5418 13.0444 77.244 -61.5679 -136.126 2.96418 9.42157 93.8047 13.9622 -3.02899 28.266 -2.13382 3.62803 -55.0234 84.025 -66.8918 -133.719 -24.6594 -0.88891 100.864 -20.254 -0.552102 20.1108 0.368312 0.266515 0.992351 13.2145 -90.3546 0.447767 1.84719 -0.610678 -11.2221 1.81852 -0.691411 -33.7677 1.9453 -0.0270858 -13.7551 1.9453 -0.0270842 86.8463 -21.5713 -117.459 9.6707 -9.79038 -53.57 5.08721 -47.4444 -9.79146 -41.9464 -7.84884 14.3189 -91.3771 -35.1241 72.5162 -9.34016 12.2116 -75.6864 3.9022 51.3125 -8.05094 8.96899 1.74884 13.9962 44.8092 -0.831733 1.40217 -2.34678 -1.50843 -1.60995 
30.3122 42.6614 8.58124 -66.0738 -82.7531 -64.695 13.1106 77.2557 -61.6909 -136.302 2.95778 9.41731 93.5477 13.8131 -3.00417 27.9669 -2.21454 3.77588 -56.1315 83.8847 -65.8798 -133.891 -24.6709 -0.862517 100.943 -20.2829 -0.503415 20.0188 0.378781 0.255332 0.980154 13.1851 -90.3458 0.506416 1.82606 -0.595906 -11.1634 1.79809 -0.675709 -33.7089 1.92071 -0.0193454 -13.6962 1.92071 -0.0193531 86.7385 -21.7785 -117.568 9.17062 -10.1334 -53.3735 5.15607 -47.0747 -10.006 -41.6606 -7.79686 14.3623 -91.3546 -35.2048 72.5825 -9.26453 12.387 -75.5747 3.71844 51.2627 -7.94502 9.18869 1.81389 14.2784 44.8073 -0.944306 1.14525 -2.65233 -1.47683 -1.25582 
30.3745 42.5957 8.63667 -66.2034 -82.8606 -64.883 12.8506 77.2279 -61.4883 -136.344 3.09504 9.42951 93.9654 13.9107 -3.40057 29.1058 -4.00163 6.79124 -57.9902 83.7158 -64.1937 -133.966 -24.9481 -0.846879 100.891 -20.2876 -0.639464 20.2008 0.374914 0.242128 0.967001 13.1914 -90.3634 0.493989 1.79331 -0.631159 -11.1759 1.76379 -0.709497 -33.721 1.90006 -0.0628313 -13.7083 1.90006 -0.0628296 86.8706 -21.5208 -117.437 9.83355 -9.92937 -53.2549 4.55338 -47.223 -10.2936 -40.9782 -7.53894 13.995 -91.3456 -35.3265 72.6386 -9.15187 12.4743 -75.8438 3.19941 50.9485 -7.50109 9.22712 1.84201 14.4697 44.7495 -0.854045 1.65451 -2.12432 -1.66351 -1.87324 
30.3608 42.5601 8.60674 -66.5135 -82.6769 -65.1638 12.9719 77.1678 -61.5397 -136.345 3.08109 9.44885 94.0772 14.0163 -3.23661 29.2175 -4.05522 6.89849 -56.3897 83.6318 -65.5394 -133.967 -24.8601 -0.855427 100.782 -20.2431 -0.685497 20.2406 0.338537 0.316137 0.988452 13.1884 -90.3444 0.499786 1.84318 -0.592223 -11.17 1.81534 -0.6728 -33.7157 1.93592 -0.0106947 -13.703 1.93593 -0.0106889 86.8444 -21.6076 -117.441 9.77383 -9.98237 -53.3486 4.57821 -47.3506 -10.2607 -41.4888 -7.72395 14.2332 -91.2756 -35.1522 72.7048 -9.23161 12.4477 -75.8818 3.32099 51.1512 -7.62732 9.27462 1.86702 14.6505 45.2687 -1.10957 0.966994 -2.82191 -1.54045 -0.97013 
30.3394 42.6555 8.57376 -66.7811 -82.6632 -65.2453 14.3532 77.1792 -62.827 -136.463 2.93647 9.35879 93.1766 13.5991 -3.17687 29.2932 -3.0781 5.22655 -54.7002 84.078 -67.2347 -133.859 -24.5917 -0.899218 100.997 -20.3117 -0.562572 20.0876 0.267032 0.48929 0.993799 13.1871 -90.3632 0.502638 1.84681 -0.628668 -11.1672 1.81736 -0.709364 -33.7129 1.95034 -0.0443569 -13.7002 1.95034 -0.044355 86.775 -21.5001 -117.659 8.85936 -10.2984 -53.5097 5.68542 -46.9904 -9.89806 -41.5875 -7.98164 14.9724 -91.3141 -35.214 72.6571 -9.86717 12.3737 -75.3625 4.33143 51.3387 -8.4322 9.55814 1.98568 15.3057 44.8125 -0.847897 1.47892 -2.13754 -1.5672 -1.511 
30.3368 42.4998 8.58697 -68.4773 -82.9346 -66.9815 13.9334 77.297 -62.6955 -136.55 3.09422 9.43741 93.6079 13.9484 -2.68828 29.7134 -4.14793 7.08514 -57.8652 83.9512 -64.3017 -134.105 -24.8069 -0.862603 101.001 -20.3103 -0.514708 19.9242 0.297425 0.442467 0.981553 13.2052 -90.3704 0.466589 1.81979 -0.642908 -11.2033 1.78973 -0.722406 -33.7486 1.92884 -0.0660731 -13.736 1.92885 -0.0660775 86.7325 -21.5319 -117.732 9.4193 -10.1628 -53.1442 4.78564 -47.0925 -10.3251 -41.0086 -7.59739 14.1632 -91.3361 -35.3387 72.6593 -9.79855 12.3565 -75.3921 4.20009 51.8145 -8.41489 10.3265 2.03675 14.573 44.7544 -0.857897 1.46554 -2.49882 -1.56373 -1.63364 
30.3609 42.4264 8.6523 -69.3593 -83.1762 -67.6817 15.6012 77.3856 -64.4212 -136.735 3.11313 9.37089 93.9258 13.9412 -3.2481 29.2778 -4.6925 7.98462 -59.5713 84.2076 -62.7502 -134.199 -24.7558 -0.884017 101.21 -20.375 -0.490453 20.1321 0.368622 0.263606 0.974471 13.1917 -90.3981 0.493857 1.79525 -0.69861 -11.1761 1.76276 -0.776981 -33.7211 1.92219 -0.126589 -13.7084 1.92219 -0.126593 86.5786 -21.6929 -117.969 9.44084 -10.2 -52.8259 4.69608 -47.3892 -10.494 -41.3597 -7.79923 14.5351 -91.3427 -35.3601 72.6548 -9.67631 12.5998 -75.1724 4.00437 51.6173 -8.32636 10.1528 2.02398 14.7236 44.3482 -0.759188 1.66967 -2.30992 -1.57394 -2.15991 
30.3426 42.3546 8.68996 -69.9143 -82.9987 -68.1343 16.3655 77.2792 -64.9521 -136.808 3.26002 9.37999 94.5776 14.2258 -3.31927 29.0297 -5.42195 9.22913 -58.473 84.2423 -63.6489 -134.312 -24.6995 -0.899863 101.241 -20.3496 -0.492388 19.9946 0.325573 0.373054 1.01088 13.1945 -90.3917 0.488038 1.87034 -0.682719 -11.1818 1.83847 -0.764396 -33.7277 1.98902 -0.0888321 -13.715 1.98902 -0.0888409 86.6922 -21.8829 -117.605 9.92374 -10.0993 -53.0104 4.25703 -47.4869 -10.6409 -41.3496 -7.66936 14.1402 -91.2301 -34.9273 72.7114 -9.89427 12.6267 -75.4213 3.78724 51.4347 -7.9179 10.0575 1.92483 13.9773 44.7783 -0.97163 1.17804 -2.50375 -1.51837 -1.51474 
30.3307 42.3773 8.65107 -68.3464 -83.0626 -66.6052 15.8681 77.1396 -64.6043 -136.719 3.32267 9.37875 94.6479 14.3174 -3.16832 28.8343 -5.4014 9.17496 -57.3018 84.149 -64.914 -134.282 -24.6274 -0.914378 101.252 -20.2972 -0.377609 20.0659 0.313049 0.391897 0.991615 13.1743 -90.3716 0.528231 1.83932 -0.646096 -11.1416 1.8091 -0.726446 -33.6871 1.94843 -0.0632415 -13.6745 1.94843 -0.0632415 86.4063 -22.2497 -118 9.79681 -9.93635 -52.7534 3.94348 -47.7215 -10.9941 -40.9417 -7.42379 13.6204 -91.0705 -34.7114 72.9244 -10.0844 12.6491 -75.3033 3.97196 51.6809 -8.02984 10.1176 1.91312 13.7879 45.2626 -1.04264 0.628091 -2.92337 -1.29777 -0.842459 
